<svg xmlns="http://www.w3.org/2000/svg" viewBox="0 0 188.53 188.53"><defs><style>.cls-1{fill:#191c1f;}</style></defs><g id="Camada_2" data-name="Camada 2"><g id="Camada_1-2" data-name="Camada 1"><path class="cls-1" d="M94.26,188.53a94.27,94.27,0,1,1,94.27-94.27A94.38,94.38,0,0,1,94.26,188.53ZM94.26,2a92.27,92.27,0,1,0,92.27,92.26A92.37,92.37,0,0,0,94.26,2Z"/><rect class="cls-1" x="92.98" y="39.59" width="2" height="109.1" transform="translate(-39.04 94.03) rotate(-45)"/><path class="cls-1" d="M75,75.13l-15.49,38h-4L40,75.13h5L49.6,86.58H65.49L70,75.13ZM57.56,107.24q2.55-7.09,4.86-12.9l1.42-3.58H51.24l1.44,3.58q2.34,5.91,4.77,12.9Z"/><path class="cls-1" d="M112.93,113.15l15.49-38h4l15.48,38h-5l-4.54-11.45H122.45l-4.54,11.45ZM130.38,81q-2.55,7.11-4.86,12.9l-1.42,3.58h12.6L135.26,94Q132.92,88,130.49,81Z"/></g></g></svg>