<svg xmlns="http://www.w3.org/2000/svg" viewBox="0 0 586.39 188.53"><defs><style>.cls-1{fill:#fff;}</style></defs><g id="Camada_2" data-name="Camada 2"><g id="Camada_1-2" data-name="Camada 1"><path class="cls-1" d="M94.26,188.53a94.27,94.27,0,1,1,94.27-94.27A94.38,94.38,0,0,1,94.26,188.53ZM94.26,2a92.27,92.27,0,1,0,92.27,92.26A92.37,92.37,0,0,0,94.26,2Z"/><rect class="cls-1" x="92.98" y="39.59" width="2" height="109.1" transform="translate(-39.04 94.03) rotate(-45)"/><path class="cls-1" d="M75,75.13l-15.49,38h-4L40,75.13h5L49.6,86.58H65.49L70,75.13ZM57.56,107.24q2.55-7.09,4.86-12.9l1.42-3.58H51.24l1.44,3.58q2.34,5.91,4.77,12.9Z"/><path class="cls-1" d="M112.93,113.15l15.49-38h4l15.48,38h-5l-4.54-11.45H122.45l-4.54,11.45ZM130.38,81q-2.55,7.11-4.86,12.9l-1.42,3.58h12.6L135.26,94Q132.92,88,130.49,81Z"/><rect class="cls-1" x="258.37" y="12.59" width="1" height="163.34"/><path class="cls-1" d="M344.41,76.35H341a1.44,1.44,0,0,1-.95-.3,1.73,1.73,0,0,1-.54-.75l-3-7.85H321.88l-3,7.85a1.75,1.75,0,0,1-.55.73,1.44,1.44,0,0,1-1,.32h-3.4l13-32.51h4.47ZM323.1,64.28h12.14l-5.1-13.23a23.72,23.72,0,0,1-1-3.06c-.17.62-.33,1.19-.49,1.71s-.31,1-.46,1.37Z"/><path class="cls-1" d="M356.73,53.37H360a1.21,1.21,0,0,1,.79.25,1.38,1.38,0,0,1,.46.59L367.12,69a12.68,12.68,0,0,1,.5,1.63c.12.55.23,1.08.34,1.61.12-.53.25-1.06.38-1.61a14.64,14.64,0,0,1,.52-1.63l5.9-14.79a1.36,1.36,0,0,1,.44-.61,1.27,1.27,0,0,1,.76-.23h3.16l-9.37,23H366.1Z"/><path class="cls-1" d="M413.35,76.35h-1.79a2.12,2.12,0,0,1-.95-.18,1,1,0,0,1-.48-.77l-.45-2.14c-.61.55-1.2,1-1.77,1.47a9.91,9.91,0,0,1-1.82,1.08,9,9,0,0,1-2,.67,11.75,11.75,0,0,1-2.39.23,8.46,8.46,0,0,1-2.51-.37,5.83,5.83,0,0,1-2-1.13,5.46,5.46,0,0,1-1.37-1.9,6.7,6.7,0,0,1-.51-2.72A5.08,5.08,0,0,1,396,68a6.5,6.5,0,0,1,2.41-2.24,15.55,15.55,0,0,1,4.37-1.61,29.53,29.53,0,0,1,6.6-.63v-1.8a6.21,6.21,0,0,0-1.15-4.07,4.15,4.15,0,0,0-3.39-1.39,7.15,7.15,0,0,0-2.48.38,9.52,9.52,0,0,0-1.75.84c-.49.31-.91.59-1.27.84a1.81,1.81,0,0,1-1,.37,1.25,1.25,0,0,1-.72-.21,1.81,1.81,0,0,1-.49-.54l-.72-1.29a13.16,13.16,0,0,1,4.1-2.74,12.62,12.62,0,0,1,4.88-.91,8.78,8.78,0,0,1,3.43.63,7.17,7.17,0,0,1,2.52,1.77,7.53,7.53,0,0,1,1.54,2.75,11.34,11.34,0,0,1,.52,3.54Zm-10.48-2.47a8.43,8.43,0,0,0,1.95-.22,7.73,7.73,0,0,0,1.67-.61,8.84,8.84,0,0,0,1.49-1,12.88,12.88,0,0,0,1.4-1.29V66.05a27.67,27.67,0,0,0-4.74.35,13.52,13.52,0,0,0-3.18.93,4.43,4.43,0,0,0-1.78,1.34,2.93,2.93,0,0,0-.55,1.74,3.76,3.76,0,0,0,.29,1.57,2.94,2.94,0,0,0,.8,1.08,3,3,0,0,0,1.18.62A5.28,5.28,0,0,0,402.87,73.88Z"/><path class="cls-1" d="M437.58,42.93V76.35h-4V42.93Z"/><path class="cls-1" d="M462.81,42.93V76.35h-4V42.93Z"/><path class="cls-1" d="M492.84,53a11.79,11.79,0,0,1,4.55.84,9.6,9.6,0,0,1,3.45,2.38A10.57,10.57,0,0,1,503,60a16.14,16.14,0,0,1,0,9.79,10.57,10.57,0,0,1-2.18,3.72,9.34,9.34,0,0,1-3.45,2.37,12.86,12.86,0,0,1-9.09,0,9.46,9.46,0,0,1-3.46-2.37,10.63,10.63,0,0,1-2.21-3.72,15.94,15.94,0,0,1,0-9.79,10.63,10.63,0,0,1,2.21-3.74,9.73,9.73,0,0,1,3.46-2.38A11.74,11.74,0,0,1,492.84,53Zm0,20.51a5.91,5.91,0,0,0,5.09-2.28,10.61,10.61,0,0,0,1.67-6.36,10.73,10.73,0,0,0-1.67-6.4,5.9,5.9,0,0,0-5.09-2.29,7.09,7.09,0,0,0-3,.59,5.58,5.58,0,0,0-2.12,1.7,7.5,7.5,0,0,0-1.27,2.73,14.75,14.75,0,0,0-.42,3.67,14.47,14.47,0,0,0,.42,3.65,7.4,7.4,0,0,0,1.27,2.71,5.55,5.55,0,0,0,2.12,1.69A6.94,6.94,0,0,0,492.84,73.51Z"/><path class="cls-1" d="M522.38,76.35v-23h2.41a1,1,0,0,1,1.08.84l.32,2.49A13.09,13.09,0,0,1,529.54,54a8.7,8.7,0,0,1,4.27-1,8.24,8.24,0,0,1,3.33.63,6.27,6.27,0,0,1,2.4,1.77A7.8,7.8,0,0,1,541,58.15a12.11,12.11,0,0,1,.5,3.56V76.35h-4V61.71a6.2,6.2,0,0,0-1.19-4,4.47,4.47,0,0,0-3.64-1.45,6.72,6.72,0,0,0-3.35.87,10.94,10.94,0,0,0-2.87,2.33V76.35Z"/><path class="cls-1" d="M347,125.9h-5.94a2.75,2.75,0,0,1-1.65-.46,2.37,2.37,0,0,1-.89-1.19l-1.95-5.77H324l-1.95,5.77a2.65,2.65,0,0,1-2.5,1.65h-6l12.8-33.05h7.85Zm-21.23-12.63h9l-3-9c-.2-.58-.43-1.26-.7-2s-.52-1.63-.78-2.53c-.24.92-.49,1.77-.75,2.56s-.5,1.47-.72,2Z"/><path class="cls-1" d="M382.85,105.19a3.37,3.37,0,0,1-.28,1.38,5.13,5.13,0,0,1-.63,1.14l-9.83,13h10.51v5.21H364v-2.85a3.44,3.44,0,0,1,.23-1.08,5.34,5.34,0,0,1,.67-1.24l9.92-13.13H364.65v-5.22h18.2Z"/><path class="cls-1" d="M412.61,102a12.24,12.24,0,0,1,4.28.72,9.42,9.42,0,0,1,3.33,2.11,9.57,9.57,0,0,1,2.18,3.39,12.51,12.51,0,0,1,.78,4.55,9,9,0,0,1-.07,1.29,2,2,0,0,1-.25.8,1,1,0,0,1-.48.41,2.5,2.5,0,0,1-.79.11H408a6.6,6.6,0,0,0,1.79,4.28,5.34,5.34,0,0,0,3.74,1.32,6.6,6.6,0,0,0,2.11-.29,11.22,11.22,0,0,0,1.58-.66l1.27-.66a2.73,2.73,0,0,1,1.21-.29,1.44,1.44,0,0,1,1.27.61l2.05,2.52a10.54,10.54,0,0,1-2.35,2,12,12,0,0,1-2.59,1.22,14.12,14.12,0,0,1-2.65.62,20.67,20.67,0,0,1-2.53.17,13.12,13.12,0,0,1-4.64-.81,10.62,10.62,0,0,1-3.79-2.39,11.25,11.25,0,0,1-2.56-3.95,14.68,14.68,0,0,1-.95-5.49,12.39,12.39,0,0,1,.81-4.47,10.82,10.82,0,0,1,6-6.22A12,12,0,0,1,412.61,102Zm.14,4.85a4.23,4.23,0,0,0-3.16,1.15,6,6,0,0,0-1.49,3.3h8.78a6.42,6.42,0,0,0-.22-1.64,3.89,3.89,0,0,0-.7-1.41,3.53,3.53,0,0,0-1.29-1A4.29,4.29,0,0,0,412.75,106.87Z"/><path class="cls-1" d="M454.94,125.9h-6.39l-9.12-23.52h5.85a2.2,2.2,0,0,1,1.26.35,1.75,1.75,0,0,1,.69.87l3.27,10.55c.25.86.5,1.7.73,2.52s.44,1.63.61,2.45c.16-.82.37-1.63.61-2.45s.5-1.66.77-2.52l3.4-10.55a1.79,1.79,0,0,1,.68-.87,2.05,2.05,0,0,1,1.18-.35h5.58Z"/><path class="cls-1" d="M491.79,102a12.19,12.19,0,0,1,4.27.72,9.37,9.37,0,0,1,3.34,2.11,9.71,9.71,0,0,1,2.18,3.39,12.51,12.51,0,0,1,.78,4.55,9,9,0,0,1-.07,1.29,2,2,0,0,1-.25.8,1,1,0,0,1-.49.41,2.39,2.39,0,0,1-.78.11H487.2a6.65,6.65,0,0,0,1.8,4.28,5.32,5.32,0,0,0,3.74,1.32,6.6,6.6,0,0,0,2.11-.29,11.75,11.75,0,0,0,1.58-.66l1.27-.66a2.7,2.7,0,0,1,1.21-.29,1.45,1.45,0,0,1,1.27.61l2,2.52a10.32,10.32,0,0,1-2.35,2,11.88,11.88,0,0,1-2.58,1.22,14.22,14.22,0,0,1-2.66.62,20.41,20.41,0,0,1-2.53.17,13.1,13.1,0,0,1-4.63-.81,10.62,10.62,0,0,1-3.79-2.39,11.41,11.41,0,0,1-2.57-3.95,14.68,14.68,0,0,1-.94-5.49,12.39,12.39,0,0,1,.81-4.47,10.81,10.81,0,0,1,2.31-3.7,11.18,11.18,0,0,1,3.65-2.52A12.09,12.09,0,0,1,491.79,102Zm.13,4.85a4.22,4.22,0,0,0-3.15,1.15,5.91,5.91,0,0,0-1.5,3.3h8.78a6.41,6.41,0,0,0-.21-1.64,3.91,3.91,0,0,0-.71-1.41,3.41,3.41,0,0,0-1.28-1A4.34,4.34,0,0,0,491.92,106.87Z"/><path class="cls-1" d="M538.52,125.9a1.9,1.9,0,0,1-1.1-.29,1.54,1.54,0,0,1-.62-.89l-.55-1.79a14.35,14.35,0,0,1-1.47,1.36,9.63,9.63,0,0,1-1.67,1.06,9.18,9.18,0,0,1-1.93.68,9.84,9.84,0,0,1-2.23.24,7.34,7.34,0,0,1-3.41-.82,7.85,7.85,0,0,1-2.7-2.36,12,12,0,0,1-1.78-3.78,18.35,18.35,0,0,1-.64-5.09,16.06,16.06,0,0,1,.72-4.89,12.27,12.27,0,0,1,2.05-3.9,9.69,9.69,0,0,1,3.19-2.58,9.06,9.06,0,0,1,4.11-.93,7.77,7.77,0,0,1,3.07.54,8.82,8.82,0,0,1,2.28,1.39V91.94h7v34Zm-7.12-5a5.92,5.92,0,0,0,1.39-.15,5.05,5.05,0,0,0,1.15-.42,5.22,5.22,0,0,0,1-.68,8.36,8.36,0,0,0,.92-1v-10a4.58,4.58,0,0,0-1.73-1.24,5.29,5.29,0,0,0-1.94-.35,4.22,4.22,0,0,0-1.79.38,3.62,3.62,0,0,0-1.42,1.24,6.46,6.46,0,0,0-.94,2.21,13.63,13.63,0,0,0-.34,3.29,15.37,15.37,0,0,0,.27,3.13,6.24,6.24,0,0,0,.76,2.05,2.87,2.87,0,0,0,1.17,1.13A3.43,3.43,0,0,0,531.4,120.87Z"/><path class="cls-1" d="M574.41,102a13.84,13.84,0,0,1,4.88.83,10.56,10.56,0,0,1,6.22,6.21,13.52,13.52,0,0,1,.88,5,13.76,13.76,0,0,1-.88,5.07,10.59,10.59,0,0,1-6.22,6.27,14.52,14.52,0,0,1-9.79,0,10.91,10.91,0,0,1-3.81-2.43,10.79,10.79,0,0,1-2.48-3.84,14,14,0,0,1-.87-5.07,13.73,13.73,0,0,1,.87-5,10.71,10.71,0,0,1,2.48-3.8,10.87,10.87,0,0,1,3.81-2.41A13.93,13.93,0,0,1,574.41,102Zm0,19a4,4,0,0,0,3.57-1.71,9.44,9.44,0,0,0,1.15-5.21,9.38,9.38,0,0,0-1.15-5.2,4,4,0,0,0-3.57-1.7,4.11,4.11,0,0,0-3.65,1.7,9.29,9.29,0,0,0-1.16,5.2,9.35,9.35,0,0,0,1.16,5.21A4.09,4.09,0,0,0,574.41,121.05Z"/><path class="cls-1" d="M323,159.66a.41.41,0,0,1-.44-.34l-.14-1.11a4.69,4.69,0,0,1-1.35,1.14,3.43,3.43,0,0,1-1.74.44,3.37,3.37,0,0,1-1.43-.31,3,3,0,0,1-1.1-.89,4.36,4.36,0,0,1-.7-1.47,7.74,7.74,0,0,1-.24-2,6.44,6.44,0,0,1,.27-1.89,4.65,4.65,0,0,1,.78-1.52,3.82,3.82,0,0,1,1.25-1,3.76,3.76,0,0,1,1.67-.37,3.3,3.3,0,0,1,1.44.29,3.45,3.45,0,0,1,1.07.8v-5.1H324v13.37Zm-3.13-1.18a2.6,2.6,0,0,0,1.38-.36,4.06,4.06,0,0,0,1.09-1v-4.45a2.61,2.61,0,0,0-1-.84,2.83,2.83,0,0,0-1.18-.24,2.32,2.32,0,0,0-2,.92,4.27,4.27,0,0,0-.69,2.61,6.8,6.8,0,0,0,.15,1.54,3,3,0,0,0,.45,1.06,1.86,1.86,0,0,0,.74.6A2.41,2.41,0,0,0,319.89,158.48Z"/><path class="cls-1" d="M332.15,150.32a4,4,0,0,1,1.52.28,3.32,3.32,0,0,1,1.21.8,3.47,3.47,0,0,1,.79,1.29,5,5,0,0,1,.29,1.74,1.13,1.13,0,0,1-.08.51.36.36,0,0,1-.31.13h-6.12a4.83,4.83,0,0,0,.24,1.51,3,3,0,0,0,.6,1.08,2.4,2.4,0,0,0,.9.64,3.18,3.18,0,0,0,1.18.22,3.24,3.24,0,0,0,1.05-.15,4.3,4.3,0,0,0,.76-.3c.21-.11.39-.21.53-.3a.66.66,0,0,1,.37-.14.37.37,0,0,1,.31.15l.45.59a3.14,3.14,0,0,1-.72.63,3.89,3.89,0,0,1-.89.44,5.55,5.55,0,0,1-1,.26,5.63,5.63,0,0,1-1,.09,4.6,4.6,0,0,1-1.76-.33,3.89,3.89,0,0,1-1.39-.94,4.34,4.34,0,0,1-.91-1.54,6.17,6.17,0,0,1-.33-2.1,5.27,5.27,0,0,1,.3-1.8,4.27,4.27,0,0,1,.85-1.45,3.86,3.86,0,0,1,1.35-1A4.48,4.48,0,0,1,332.15,150.32Zm0,1.19a2.45,2.45,0,0,0-1.84.68,3.1,3.1,0,0,0-.83,1.87h5a3.37,3.37,0,0,0-.16-1,2.29,2.29,0,0,0-.45-.81,2.12,2.12,0,0,0-.73-.52A2.4,2.4,0,0,0,332.18,151.51Z"/><path class="cls-1" d="M345.1,152a.38.38,0,0,1-.34.2.62.62,0,0,1-.31-.1l-.42-.22a4.29,4.29,0,0,0-.59-.23,2.88,2.88,0,0,0-.82-.1,2.45,2.45,0,0,0-.74.1,1.8,1.8,0,0,0-.55.29,1.19,1.19,0,0,0-.36.42,1.14,1.14,0,0,0-.12.52.9.9,0,0,0,.2.59,1.75,1.75,0,0,0,.54.41,3.86,3.86,0,0,0,.77.3l.87.29c.3.1.59.21.88.33a3.18,3.18,0,0,1,.76.45,2.1,2.1,0,0,1,.54.67,2,2,0,0,1,.2.95,3,3,0,0,1-.22,1.17,2.7,2.7,0,0,1-.67.94,3.3,3.3,0,0,1-1.09.62,4.54,4.54,0,0,1-1.49.22,4.57,4.57,0,0,1-3.07-1.11l.38-.62a.59.59,0,0,1,.17-.18.54.54,0,0,1,.27-.06.61.61,0,0,1,.34.12,4.91,4.91,0,0,0,.44.28,3.38,3.38,0,0,0,.63.29,3,3,0,0,0,.92.12,2.64,2.64,0,0,0,.83-.12,1.77,1.77,0,0,0,.59-.33,1.32,1.32,0,0,0,.34-.48,1.43,1.43,0,0,0,.12-.58.92.92,0,0,0-.21-.63,1.58,1.58,0,0,0-.54-.43,4.45,4.45,0,0,0-.76-.31l-.88-.28a6.63,6.63,0,0,1-.88-.33,3.08,3.08,0,0,1-.77-.46,2.22,2.22,0,0,1-.54-.7,2.18,2.18,0,0,1-.2-1,2.5,2.5,0,0,1,.21-1,2.55,2.55,0,0,1,.64-.86,3.16,3.16,0,0,1,1-.58,4,4,0,0,1,1.39-.22,4.39,4.39,0,0,1,1.63.29,3.89,3.89,0,0,1,1.25.78Z"/><path class="cls-1" d="M351.68,147.58a1.08,1.08,0,0,1-.09.44,1.2,1.2,0,0,1-.62.61,1.13,1.13,0,0,1-.45.09,1.12,1.12,0,0,1-.44-.09,1.23,1.23,0,0,1-.36-.25,1,1,0,0,1-.25-.36,1.08,1.08,0,0,1-.09-.44,1.13,1.13,0,0,1,.09-.45,1.05,1.05,0,0,1,.25-.37,1.23,1.23,0,0,1,.36-.25,1.12,1.12,0,0,1,.44-.09,1.13,1.13,0,0,1,.45.09,1.15,1.15,0,0,1,.37.25,1.21,1.21,0,0,1,.25.37A1.13,1.13,0,0,1,351.68,147.58Zm-.36,2.89v9.19h-1.61v-9.19Z"/><path class="cls-1" d="M359.08,150.31a5,5,0,0,1,1.12.13,3.51,3.51,0,0,1,.95.39h2.5v.6c0,.2-.13.32-.39.38l-1,.14a2.79,2.79,0,0,1,.31,1.32,2.87,2.87,0,0,1-.26,1.22,2.66,2.66,0,0,1-.72.94,3.1,3.1,0,0,1-1.09.6,4.34,4.34,0,0,1-1.38.21,4.44,4.44,0,0,1-1.22-.16,1.42,1.42,0,0,0-.43.41.67.67,0,0,0-.16.42.58.58,0,0,0,.27.51,1.74,1.74,0,0,0,.7.25,5.9,5.9,0,0,0,1,.07h1.13a6.1,6.1,0,0,1,1.13.11,3.21,3.21,0,0,1,1,.33,1.75,1.75,0,0,1,.69.63,1.86,1.86,0,0,1,.27,1.05,2.41,2.41,0,0,1-.3,1.15,3.09,3.09,0,0,1-.85,1,4.52,4.52,0,0,1-1.35.7,5.88,5.88,0,0,1-1.8.26,7.13,7.13,0,0,1-1.77-.2,4,4,0,0,1-1.26-.54,2.38,2.38,0,0,1-.75-.77,1.91,1.91,0,0,1-.24-.92,1.65,1.65,0,0,1,.43-1.16,2.91,2.91,0,0,1,1.18-.76,1.59,1.59,0,0,1-.62-.48,1.31,1.31,0,0,1-.23-.82,1.22,1.22,0,0,1,.07-.41,1.7,1.7,0,0,1,.22-.42,2.74,2.74,0,0,1,.37-.4,2.36,2.36,0,0,1,.51-.33,2.93,2.93,0,0,1-1.2-3.71,2.81,2.81,0,0,1,.73-.94,3.41,3.41,0,0,1,1.1-.59A4.42,4.42,0,0,1,359.08,150.31Zm2.87,9.82a.8.8,0,0,0-.19-.57,1.29,1.29,0,0,0-.52-.33,3.77,3.77,0,0,0-.75-.17,6.6,6.6,0,0,0-.9-.05h-1a3.62,3.62,0,0,1-.94-.13,3,3,0,0,0-.84.6,1.25,1.25,0,0,0-.32.85,1,1,0,0,0,.16.57,1.39,1.39,0,0,0,.49.47,2.87,2.87,0,0,0,.82.31,5.57,5.57,0,0,0,1.16.11,5.14,5.14,0,0,0,1.17-.12,2.84,2.84,0,0,0,.88-.34,1.75,1.75,0,0,0,.55-.53A1.21,1.21,0,0,0,362,160.13Zm-2.87-5A2.56,2.56,0,0,0,360,155a1.8,1.8,0,0,0,.63-.38,1.58,1.58,0,0,0,.38-.59,2.17,2.17,0,0,0,.13-.74,1.78,1.78,0,0,0-.52-1.35,2.06,2.06,0,0,0-1.49-.5,2,2,0,0,0-1.48.5,1.82,1.82,0,0,0-.52,1.35,2,2,0,0,0,.14.74,1.47,1.47,0,0,0,.38.59,1.8,1.8,0,0,0,.63.38A2.48,2.48,0,0,0,359.08,155.17Z"/><path class="cls-1" d="M367.08,159.66v-9.19h1a.4.4,0,0,1,.43.33l.13,1a5.06,5.06,0,0,1,1.34-1.07,3.49,3.49,0,0,1,1.71-.41,3.29,3.29,0,0,1,1.33.25,2.62,2.62,0,0,1,1,.71,3.13,3.13,0,0,1,.59,1.1,4.94,4.94,0,0,1,.2,1.43v5.85h-1.62v-5.85a2.45,2.45,0,0,0-.48-1.62,1.75,1.75,0,0,0-1.45-.58,2.7,2.7,0,0,0-1.34.34,4.4,4.4,0,0,0-1.15.94v6.77Z"/><path class="cls-1" d="M382.62,150.32a4,4,0,0,1,1.53.28,3.37,3.37,0,0,1,1.2.8,3.49,3.49,0,0,1,.8,1.29,5,5,0,0,1,.28,1.74,1.13,1.13,0,0,1-.08.51.35.35,0,0,1-.31.13h-6.11a5.15,5.15,0,0,0,.23,1.51,3.3,3.3,0,0,0,.6,1.08,2.43,2.43,0,0,0,.91.64,3.14,3.14,0,0,0,1.18.22,3.32,3.32,0,0,0,1-.15,4.5,4.5,0,0,0,.75-.3c.21-.11.39-.21.53-.3a.69.69,0,0,1,.37-.14.35.35,0,0,1,.31.15l.45.59a3.08,3.08,0,0,1-.71.63,4.17,4.17,0,0,1-.9.44,5.23,5.23,0,0,1-1,.26,5.83,5.83,0,0,1-1,.09,4.55,4.55,0,0,1-1.75-.33,3.81,3.81,0,0,1-1.39-.94,4.36,4.36,0,0,1-.92-1.54,6.44,6.44,0,0,1-.32-2.1,5.52,5.52,0,0,1,.29-1.8,4.27,4.27,0,0,1,.85-1.45,3.86,3.86,0,0,1,1.35-1A4.51,4.51,0,0,1,382.62,150.32Zm0,1.19a2.47,2.47,0,0,0-1.85.68,3.21,3.21,0,0,0-.83,1.87h5a3.37,3.37,0,0,0-.15-1,2.48,2.48,0,0,0-.46-.81,2,2,0,0,0-.73-.52A2.35,2.35,0,0,0,382.66,151.51Z"/><path class="cls-1" d="M390.31,159.66v-9.19h.92a.47.47,0,0,1,.36.1.54.54,0,0,1,.14.34l.11,1.43a4.09,4.09,0,0,1,1.17-1.5,2.55,2.55,0,0,1,1.62-.54,2.4,2.4,0,0,1,.69.09,2.72,2.72,0,0,1,.58.24l-.21,1.21a.27.27,0,0,1-.28.22A1.57,1.57,0,0,1,395,152a2.39,2.39,0,0,0-.74-.09,2.07,2.07,0,0,0-1.41.49,3.72,3.72,0,0,0-.95,1.43v5.85Z"/><path class="cls-1" d="M409.42,146.51a3.58,3.58,0,0,1,1.3.23,3.41,3.41,0,0,1,1,.61,3,3,0,0,1,.69.89,2.73,2.73,0,0,1,.28,1l-1,.2h-.08a.44.44,0,0,1-.22-.07.36.36,0,0,1-.15-.23,2.41,2.41,0,0,0-.2-.49,2.26,2.26,0,0,0-.37-.46,1.79,1.79,0,0,0-.53-.34,1.83,1.83,0,0,0-.73-.14,2.1,2.1,0,0,0-.82.15,1.74,1.74,0,0,0-.62.4,1.7,1.7,0,0,0-.4.61,2.06,2.06,0,0,0-.14.76,2.35,2.35,0,0,0,.08.6,2.88,2.88,0,0,0,.23.59,3.35,3.35,0,0,0,.4.61,6.71,6.71,0,0,0,.59.66l3.74,3.8a6,6,0,0,0,.54-1.28,7,7,0,0,0,.28-1.34.47.47,0,0,1,.11-.27.32.32,0,0,1,.25-.1h1a7.14,7.14,0,0,1-.33,2,7.52,7.52,0,0,1-.92,1.89l2.72,2.76h-1.56a1.21,1.21,0,0,1-.42-.06,1.26,1.26,0,0,1-.37-.27l-1.3-1.31a6.56,6.56,0,0,1-2,1.3,6.12,6.12,0,0,1-2.45.48,4.37,4.37,0,0,1-1.42-.24,3.86,3.86,0,0,1-1.25-.71,3.67,3.67,0,0,1-.88-1.14,3.3,3.3,0,0,1-.34-1.52,3.23,3.23,0,0,1,.22-1.2,3.63,3.63,0,0,1,.59-1.05,4.28,4.28,0,0,1,.89-.86,5.94,5.94,0,0,1,1.13-.65,5.23,5.23,0,0,1-.81-1.37,3.56,3.56,0,0,1-.27-1.37,3.22,3.22,0,0,1,.24-1.24,3,3,0,0,1,.7-1,3.3,3.3,0,0,1,1.1-.68A4,4,0,0,1,409.42,146.51Zm-3.61,9.55a2.38,2.38,0,0,0,.22,1,2.45,2.45,0,0,0,.57.76,2.53,2.53,0,0,0,.81.47,2.68,2.68,0,0,0,.93.16,4.41,4.41,0,0,0,1.82-.37,5.08,5.08,0,0,0,1.43-1l-3.84-3.88a4,4,0,0,0-1.45,1.24A2.8,2.8,0,0,0,405.81,156.06Z"/><path class="cls-1" d="M423.45,150.47h1.27a.47.47,0,0,1,.32.1.44.44,0,0,1,.18.23l1.76,5.92c0,.22.09.43.13.63s.08.41.11.61c0-.2.1-.41.17-.61s.12-.41.19-.63l1.94-5.95a.46.46,0,0,1,.16-.23.43.43,0,0,1,.28-.09h.7a.49.49,0,0,1,.3.09.46.46,0,0,1,.16.23l1.9,5.95c.07.21.13.42.18.62l.15.61c0-.2.07-.41.12-.62a5,5,0,0,1,.15-.61l1.8-5.92a.45.45,0,0,1,.17-.24.49.49,0,0,1,.3-.09h1.21l-3,9.19h-1.28c-.16,0-.27-.1-.33-.31l-2-6.23a3,3,0,0,1-.12-.43l-.09-.42-.09.43a2.9,2.9,0,0,1-.12.42L428,159.35a.38.38,0,0,1-.37.31h-1.22Z"/><path class="cls-1" d="M444,150.32a4,4,0,0,1,1.53.28,3.37,3.37,0,0,1,1.2.8,3.49,3.49,0,0,1,.8,1.29,5,5,0,0,1,.28,1.74,1,1,0,0,1-.08.51.35.35,0,0,1-.31.13h-6.11a5.15,5.15,0,0,0,.23,1.51,3.3,3.3,0,0,0,.6,1.08,2.51,2.51,0,0,0,.91.64,3.14,3.14,0,0,0,1.18.22,3.32,3.32,0,0,0,1-.15,4.5,4.5,0,0,0,.75-.3,5.57,5.57,0,0,0,.53-.3.69.69,0,0,1,.37-.14.35.35,0,0,1,.31.15l.45.59a3.08,3.08,0,0,1-.71.63,4.17,4.17,0,0,1-.9.44,5.23,5.23,0,0,1-1,.26,5.83,5.83,0,0,1-1,.09,4.55,4.55,0,0,1-1.75-.33,3.81,3.81,0,0,1-1.39-.94A4.2,4.2,0,0,1,440,157a6.17,6.17,0,0,1-.33-2.1,5.52,5.52,0,0,1,.29-1.8,4.27,4.27,0,0,1,.85-1.45,3.86,3.86,0,0,1,1.35-1A4.55,4.55,0,0,1,444,150.32Zm0,1.19a2.43,2.43,0,0,0-1.84.68,3.16,3.16,0,0,0-.84,1.87h5a3.37,3.37,0,0,0-.15-1,2.48,2.48,0,0,0-.46-.81,2,2,0,0,0-.73-.52A2.35,2.35,0,0,0,444,151.51Z"/><path class="cls-1" d="M451.74,159.66V146.29h1.63v5.5a4.43,4.43,0,0,1,1.31-1.06,3.44,3.44,0,0,1,1.69-.41,3.37,3.37,0,0,1,1.44.3,3,3,0,0,1,1.1.89,4.36,4.36,0,0,1,.7,1.47,7.72,7.72,0,0,1,.24,2,6.46,6.46,0,0,1-.27,1.9,4.6,4.6,0,0,1-.78,1.51,3.66,3.66,0,0,1-2.92,1.38,3.06,3.06,0,0,1-1.51-.35,3.42,3.42,0,0,1-1.09-1l-.08.83a.4.4,0,0,1-.42.35Zm4.1-8a2.6,2.6,0,0,0-1.38.36,3.9,3.9,0,0,0-1.09,1v4.44a2.53,2.53,0,0,0,1,.85,2.88,2.88,0,0,0,1.19.24,2.31,2.31,0,0,0,2-.91,4.28,4.28,0,0,0,.69-2.62,6.28,6.28,0,0,0-.16-1.54,3,3,0,0,0-.45-1.06,1.86,1.86,0,0,0-.74-.6A2.4,2.4,0,0,0,455.84,151.61Z"/><path class="cls-1" d="M475.44,159.66a.41.41,0,0,1-.44-.34l-.15-1.11a4.65,4.65,0,0,1-1.34,1.14,3.46,3.46,0,0,1-1.74.44,3.33,3.33,0,0,1-1.43-.31,3,3,0,0,1-1.1-.89,4.36,4.36,0,0,1-.7-1.47,7.72,7.72,0,0,1-.25-2,6.13,6.13,0,0,1,.28-1.89,4.65,4.65,0,0,1,.78-1.52,3.72,3.72,0,0,1,1.25-1,3.76,3.76,0,0,1,1.67-.37,3.33,3.33,0,0,1,1.44.29,3.45,3.45,0,0,1,1.07.8v-5.1h1.62v13.37Zm-3.14-1.18a2.64,2.64,0,0,0,1.39-.36,4.21,4.21,0,0,0,1.09-1v-4.45a2.68,2.68,0,0,0-1-.84,2.86,2.86,0,0,0-1.18-.24,2.33,2.33,0,0,0-2,.92,4.27,4.27,0,0,0-.69,2.61,6.23,6.23,0,0,0,.16,1.54,3,3,0,0,0,.45,1.06,1.86,1.86,0,0,0,.74.6A2.4,2.4,0,0,0,472.3,158.48Z"/><path class="cls-1" d="M484.56,150.32a4,4,0,0,1,1.53.28,3.32,3.32,0,0,1,1.21.8,3.47,3.47,0,0,1,.79,1.29,5,5,0,0,1,.29,1.74,1,1,0,0,1-.09.51.33.33,0,0,1-.3.13h-6.12a4.83,4.83,0,0,0,.24,1.51,3.11,3.11,0,0,0,.59,1.08,2.51,2.51,0,0,0,.91.64,3.18,3.18,0,0,0,1.18.22,3.24,3.24,0,0,0,1-.15,4.63,4.63,0,0,0,.76-.3c.21-.11.39-.21.53-.3a.64.64,0,0,1,.37-.14.34.34,0,0,1,.3.15l.46.59a3.14,3.14,0,0,1-.72.63,4.1,4.1,0,0,1-.89.44,5.55,5.55,0,0,1-1,.26,5.72,5.72,0,0,1-1,.09,4.6,4.6,0,0,1-1.76-.33,3.81,3.81,0,0,1-1.39-.94,4.34,4.34,0,0,1-.91-1.54,6.17,6.17,0,0,1-.33-2.1,5.27,5.27,0,0,1,.3-1.8,4.12,4.12,0,0,1,.85-1.45,3.78,3.78,0,0,1,1.35-1A4.47,4.47,0,0,1,484.56,150.32Zm0,1.19a2.45,2.45,0,0,0-1.84.68,3.16,3.16,0,0,0-.84,1.87h5a3.37,3.37,0,0,0-.15-1,2.29,2.29,0,0,0-.45-.81,2.12,2.12,0,0,0-.73-.52A2.4,2.4,0,0,0,484.6,151.51Z"/><path class="cls-1" d="M490.85,150.47h1.33a.49.49,0,0,1,.32.1.58.58,0,0,1,.18.23l2.33,5.92a5.38,5.38,0,0,1,.2.65c.05.22.09.43.14.65,0-.22.09-.43.15-.65a4.09,4.09,0,0,1,.21-.65l2.36-5.92a.51.51,0,0,1,.17-.24.54.54,0,0,1,.31-.09h1.26l-3.75,9.19H494.6Z"/><path class="cls-1" d="M506.52,150.32a4,4,0,0,1,1.53.28,3.32,3.32,0,0,1,1.21.8,3.47,3.47,0,0,1,.79,1.29,5,5,0,0,1,.29,1.74,1,1,0,0,1-.09.51.33.33,0,0,1-.3.13h-6.12a4.83,4.83,0,0,0,.24,1.51,3.11,3.11,0,0,0,.59,1.08,2.51,2.51,0,0,0,.91.64,3.18,3.18,0,0,0,1.18.22,3.24,3.24,0,0,0,1.05-.15,4.63,4.63,0,0,0,.76-.3c.21-.11.39-.21.53-.3a.64.64,0,0,1,.37-.14.34.34,0,0,1,.3.15l.46.59a3.14,3.14,0,0,1-.72.63,4.1,4.1,0,0,1-.89.44,5.55,5.55,0,0,1-1,.26,5.72,5.72,0,0,1-1,.09,4.6,4.6,0,0,1-1.76-.33,3.81,3.81,0,0,1-1.39-.94,4.34,4.34,0,0,1-.91-1.54,6.17,6.17,0,0,1-.33-2.1,5.27,5.27,0,0,1,.3-1.8,4.12,4.12,0,0,1,.85-1.45,3.78,3.78,0,0,1,1.35-1A4.47,4.47,0,0,1,506.52,150.32Zm0,1.19a2.45,2.45,0,0,0-1.84.68,3.16,3.16,0,0,0-.84,1.87h5a3.37,3.37,0,0,0-.15-1,2.29,2.29,0,0,0-.45-.81,2.12,2.12,0,0,0-.73-.52A2.4,2.4,0,0,0,506.56,151.51Z"/><path class="cls-1" d="M516,146.29v13.37h-1.62V146.29Z"/><path class="cls-1" d="M524.39,150.32a4.61,4.61,0,0,1,1.82.34,3.83,3.83,0,0,1,1.38,1,4.16,4.16,0,0,1,.87,1.49,6.35,6.35,0,0,1,0,3.92,4.16,4.16,0,0,1-.87,1.49,3.81,3.81,0,0,1-1.38.94,5,5,0,0,1-3.64,0,3.81,3.81,0,0,1-1.38-.94,4.18,4.18,0,0,1-.88-1.49,6.35,6.35,0,0,1,0-3.92,4.18,4.18,0,0,1,.88-1.49,3.83,3.83,0,0,1,1.38-1A4.61,4.61,0,0,1,524.39,150.32Zm0,8.2a2.34,2.34,0,0,0,2-.91,4.19,4.19,0,0,0,.68-2.54,4.24,4.24,0,0,0-.68-2.56,2.34,2.34,0,0,0-2-.92,2.79,2.79,0,0,0-1.2.24,2.06,2.06,0,0,0-.84.68,2.9,2.9,0,0,0-.51,1.09,6.4,6.4,0,0,0,0,2.93,2.85,2.85,0,0,0,.51,1.08,2.15,2.15,0,0,0,.84.68A2.79,2.79,0,0,0,524.39,158.52Z"/><path class="cls-1" d="M532.58,162.77v-12.3h1a.42.42,0,0,1,.44.33l.13,1.09a4.75,4.75,0,0,1,1.35-1.15,3.45,3.45,0,0,1,1.75-.44,3.22,3.22,0,0,1,1.43.31,2.88,2.88,0,0,1,1.1.9,4.37,4.37,0,0,1,.7,1.47,7.72,7.72,0,0,1,.24,2,6.46,6.46,0,0,1-.27,1.9,4.6,4.6,0,0,1-.78,1.51,3.63,3.63,0,0,1-2.91,1.38,3.39,3.39,0,0,1-1.46-.29,3.27,3.27,0,0,1-1.07-.79v4.06Zm4.09-11.16a2.58,2.58,0,0,0-1.38.36,3.93,3.93,0,0,0-1.1,1v4.44a2.57,2.57,0,0,0,1,.85,2.83,2.83,0,0,0,1.18.24,2.31,2.31,0,0,0,2-.91A4.28,4.28,0,0,0,539,155a6.28,6.28,0,0,0-.16-1.54,3,3,0,0,0-.46-1.06,1.83,1.83,0,0,0-.73-.6A2.4,2.4,0,0,0,536.67,151.61Z"/><path class="cls-1" d="M548.05,150.32a4,4,0,0,1,1.52.28,3.32,3.32,0,0,1,1.21.8,3.47,3.47,0,0,1,.79,1.29,4.74,4.74,0,0,1,.29,1.74,1.13,1.13,0,0,1-.08.51.36.36,0,0,1-.31.13h-6.12a5.14,5.14,0,0,0,.24,1.51,3.13,3.13,0,0,0,.6,1.08,2.43,2.43,0,0,0,.91.64,3.14,3.14,0,0,0,1.18.22,3.22,3.22,0,0,0,1-.15,4.3,4.3,0,0,0,.76-.3c.21-.11.39-.21.53-.3a.69.69,0,0,1,.37-.14.36.36,0,0,1,.31.15l.45.59a3.3,3.3,0,0,1-.71.63,4.17,4.17,0,0,1-.9.44,5.44,5.44,0,0,1-1,.26,5.83,5.83,0,0,1-1,.09,4.6,4.6,0,0,1-1.76-.33,3.85,3.85,0,0,1-1.38-.94,4.22,4.22,0,0,1-.92-1.54,6.44,6.44,0,0,1-.32-2.1,5.27,5.27,0,0,1,.29-1.8,4.27,4.27,0,0,1,.85-1.45,3.86,3.86,0,0,1,1.35-1A4.48,4.48,0,0,1,548.05,150.32Zm0,1.19a2.47,2.47,0,0,0-1.85.68,3.21,3.21,0,0,0-.83,1.87h5a3.09,3.09,0,0,0-.16-1,2.29,2.29,0,0,0-.45-.81,2,2,0,0,0-.73-.52A2.38,2.38,0,0,0,548.09,151.51Z"/><path class="cls-1" d="M555.74,159.66v-9.19h.92a.47.47,0,0,1,.36.1.54.54,0,0,1,.14.34l.11,1.43a4.09,4.09,0,0,1,1.17-1.5,2.55,2.55,0,0,1,1.62-.54,2.4,2.4,0,0,1,.69.09,2.72,2.72,0,0,1,.58.24l-.21,1.21a.28.28,0,0,1-.28.22,1.72,1.72,0,0,1-.4-.08,2.32,2.32,0,0,0-.73-.09,2.07,2.07,0,0,0-1.41.49,3.61,3.61,0,0,0-.95,1.43v5.85Z"/></g></g></svg>